<?xml version="1.0" encoding="utf-8"?>
<!-- Generator: Adobe Illustrator 23.0.4, SVG Export Plug-In . SVG Version: 6.00 Build 0)  -->
<svg version="1.1" id="Layer_1" xmlns="http://www.w3.org/2000/svg" xmlns:xlink="http://www.w3.org/1999/xlink" x="0px" y="0px"
	 viewBox="0 0 2000 549" style="enable-background:new 0 0 2000 549;" xml:space="preserve">
<style type="text/css">
	.st0{fill:#404040;}
</style>
<g>
	<path class="st0" d="M1999.7,297.1c-0.5,9.2-4.4,10.8-11.3,4.8c-20.1-17.5-44.5-27.7-67.6-40.3c-75.6-41.2-157-60.7-242.1-65.7
		c-56.1-3.3-112.2-2.6-168.1,4.8c-62.4,8.3-123.3,22.8-183.6,40c-35.5,10.1-68.2,29.9-106.4,31c-5.9,0.2-13.2,4.2-16.8-1.7
		c-3.7-5.9,4-9,7.3-12.8c39.2-45.3,86.3-81.3,135.3-115.2c74-51.3,154.3-87.8,242.8-104.9c65.9-12.7,132.3-15.6,198.8-2.8
		c14.3,2.8,26.8,9.3,38.2,17.9c51,38.5,98.2,81.3,136.4,132.5c20.8,27.9,35.3,60,37.5,96C1999.9,286.2,2000,291.7,1999.7,297.1z
		 M1531.7,65.9c-77.1,25.8-149.1,60.5-211.6,113.6c-23.6,20-51.4,34.9-72.6,58c-3.3,3.6-11.6,5.4-7.4,12.2
		c3.8,6.1,11.2,4.5,16.7,2.2c23.7-10.1,48.5-16.5,72.8-24.5c51.2-16.9,104.3-25.1,156.9-36.2c52.1-11,104.6-10,156.4-10.6
		c49.7-0.6,100.5,6,150,18.1c30.6,7.4,63.1,14.4,89.4,27.7c25.1,12.7,55,19.1,76,40.1c2.4,2.4,4.9,5.4,7.9,6.2
		c6.3,1.6,12.8,8.5,18.9,3.5c6.6-5.3,1.6-12.5-1-18.6c-20.4-48.7-48.4-91.4-86.9-128.9c-31.2-30.4-68.4-51.8-101.5-79.1
		c-7.7-6.3-18.5-7.4-29-7.4c-22.4,0-44.8-0.7-67.2-1C1641.2,34,1586.1,47.7,1531.7,65.9z"/>
	<path class="st0" d="M1699.3,41.1c-58.1-7.1-113.2,6.6-167.6,24.8c-77.1,25.8-149.1,60.5-211.6,113.6c-23.6,20-51.4,34.9-72.6,58
		c-3.3,3.6-11.6,5.4-7.4,12.2c3.8,6.1,11.2,4.5,16.7,2.2c23.7-10.1,48.5-16.5,72.8-24.5c51.2-16.9,104.3-25.1,156.9-36.2
		c52.1-11,104.6-10,156.4-10.6c49.7-0.6,100.5,6,150,18.1c30.6,7.4,63.1,14.4,89.4,27.7c25.1,12.7,55,19.1,76,40.1
		c2.4,2.4,4.9,5.4,7.9,6.2c6.3,1.6,12.8,8.5,18.9,3.5c6.6-5.3,1.6-12.5-1-18.6c-20.4-48.7-48.4-91.4-86.9-128.9
		c-31.2-30.4-68.4-51.8-101.5-79.1c-7.7-6.3-18.5-7.4-29-7.4C1744.1,42.1,1721.7,41.5,1699.3,41.1z"/>
	<path class="st0" d="M1337.6,473.6c18.8-41.4,52.4-69,89.1-92.5c22.6-14.5,45-30.8,73.3-33.4c-5.3,7.4-9.7,15.4-13.2,23.9
		c-0.9-0.7-1.7-1.2-2.6-1.6c-1.3-0.6-2.5-0.8-3.7-0.8c0,0,0,0,0,0c-0.4,0-0.8,0-1.2,0.1c-0.8,0.1-1.6,0.3-2.3,0.6
		c-1.1,0.4-2.2,1-3.3,1.6c1.1-0.6,2.2-1.2,3.3-1.6c0.8-0.3,1.5-0.5,2.3-0.6c0.4-0.1,0.8-0.1,1.2-0.1c0,0,0,0,0,0
		c1.2,0,2.4,0.2,3.7,0.8c0.8,0.4,1.7,0.9,2.6,1.6c-5.3,13-8.3,27.2-8.6,42c-0.7,37.8,16.7,71.8,44.2,93.7
		c-47.5-10.3-94.3-24.1-143.4-27.2c-29.5-1.9-31.6-2.7-37.7,27.2c-1.2,5.9-1.4,12.1-1.4,12.4c-0.1,7.8-0.2,9.8-0.2,11.9
		c-0.1,5.6,3.8,13.7-5.6,14.6c-9.3,0.8-7.6-8.1-8.1-13.5C1324.4,512,1329.1,492.5,1337.6,473.6z"/>
	<path class="st0" d="M1712.2,417.8c0.1-4.6-0.1-9.2-0.6-13.7c0,0,0,0,0.1,0c1.6-1.7,3.2-3.4,4.8-5.1c-1.6,1.7-3.2,3.4-4.8,5.1
		c0,0,0,0-0.1,0c-0.9-8.7-2.7-17.1-5.3-25.2c78.8,26.9,151.7,69.7,220.7,123.3c4.5,3.5,13.9,7.4,6.2,15.8
		c-6.5,7.2-10.7-0.3-15.1-3.8c-33.1-26.1-67.7-49.9-104.5-70.5c-8.6-4.8-15.7-10.5-19.2,5.8c-3.1,13.9-15.4,22-27.4,28.8
		c-35.8,20.1-72.8,32.4-111.1,37.5C1689,495.6,1711.5,459.4,1712.2,417.8z"/>
	<path class="st0" d="M1486.9,371.7C1486.8,371.7,1486.8,371.7,1486.9,371.7L1486.9,371.7C1486.8,371.7,1486.8,371.7,1486.9,371.7
		L1486.9,371.7z"/>
	<g>
		<g id="R_Eyebrow_4_">
			<path class="st0" d="M0.3,244.4c3.5-35.9,19.1-67.5,40.8-94.6c40-49.9,88.6-91,140.9-127.7c11.8-8.3,24.5-14.3,38.8-16.6
				C287.7-5,354,0.2,419.5,15.2c87.8,20.2,166.8,59.5,239,113.3c47.8,35.6,93.6,73.2,131.2,119.9c3.2,3.9,10.7,7.3,6.8,13
				c-3.9,5.7-11,1.5-16.9,1.1c-38.1-2.4-70.1-23.3-105.2-34.7c-59.7-19.3-120.1-35.9-182.1-46.4c-55.7-9.4-111.7-12-167.9-10.7
				c-85.2,2-167.3,18.6-244.3,57.2c-23.5,11.8-48.2,21.1-68.9,37.9C4,271.6,0.2,270,0,260.7C-0.1,255.3,0.2,249.9,0.3,244.4z
				 M309.1,15.3c-22.4-0.4-44.8-0.5-67.2-1.3c-10.5-0.4-21.4,0.4-29.3,6.4c-34,26.1-71.9,46.2-104.2,75.5
				c-39.8,36.1-69.2,77.8-91.3,125.8c-2.8,6-8.1,13-1.6,18.5c5.9,5.1,12.7-1.5,19-2.9c3-0.7,5.6-3.6,8.1-5.9
				c21.7-20.3,51.8-25.6,77.3-37.4c26.8-12.4,59.5-18.2,90.3-24.6c49.9-10.3,100.9-15.1,150.5-12.8c51.7,2.4,104.3,3.2,155.9,16.1
				c52.1,13,104.9,23,155.5,41.7c24,8.8,48.6,16.2,71.9,27c5.4,2.5,12.7,4.4,16.7-1.6c4.4-6.7-3.8-8.8-7-12.5
				c-20.4-23.8-47.7-39.7-70.5-60.5C622.7,111.6,551.9,74.4,475.8,46C422,25.9,367.5,10.3,309.1,15.3z"/>
			<path class="st0" d="M309.1,15.3c58.4-5,112.9,10.5,166.7,30.6c76.1,28.4,146.9,65.6,207.5,120.9c22.8,20.8,50.1,36.7,70.5,60.5
				c3.2,3.7,11.4,5.8,7,12.5c-4,6-11.3,4.1-16.7,1.6c-23.3-10.9-47.9-18.2-71.9-27c-50.6-18.6-103.4-28.7-155.5-41.7
				c-51.6-12.8-104.2-13.7-155.9-16.1c-49.7-2.3-100.6,2.5-150.5,12.8c-30.8,6.3-63.5,12.2-90.3,24.6
				c-25.5,11.8-55.6,17.1-77.3,37.4c-2.5,2.3-5.1,5.2-8.1,5.9c-6.3,1.4-13.1,8-19,2.9c-6.4-5.5-1.1-12.5,1.6-18.5
				c22.1-48,51.5-89.7,91.3-125.8c32.3-29.3,70.2-49.4,104.2-75.5c7.9-6,18.8-6.8,29.3-6.4C264.4,14.8,286.8,14.9,309.1,15.3z"/>
		</g>
		<path class="st0" d="M655.5,460.2c-17.3-42-49.9-70.7-85.8-95.6c-22.1-15.3-43.9-32.3-72.1-35.9c5,7.6,9.2,15.7,12.3,24.4
			c0.9-0.7,1.8-1.2,2.6-1.5c1.3-0.5,2.5-0.7,3.7-0.6c0,0,0,0,0,0c0.4,0,0.8,0.1,1.2,0.1c0.8,0.1,1.5,0.4,2.3,0.7
			c1.1,0.5,2.2,1.1,3.3,1.7c-1.1-0.7-2.1-1.3-3.3-1.7c-0.7-0.3-1.5-0.5-2.3-0.7c-0.4-0.1-0.8-0.1-1.2-0.1c0,0,0,0,0,0
			c-1.2-0.1-2.4,0.1-3.7,0.6c-0.8,0.3-1.7,0.8-2.6,1.5c4.8,13.2,7.4,27.4,7.1,42.3c-0.7,37.8-19.2,71.2-47.5,92.1
			c47.8-8.6,95.1-20.8,144.2-22.2c29.5-0.8,31.7-1.6,36.7,28.5c1,6,0.9,12.1,1,12.5c-0.1,7.8-0.2,9.8-0.2,11.9
			c-0.1,5.6-4.3,13.6,5.1,14.8c9.3,1.2,7.9-7.8,8.6-13.2C667.4,499.1,663.4,479.4,655.5,460.2z"/>
		<path class="st0" d="M283.1,391.4c0.1-4.6,0.5-9.2,1.1-13.7c0,0,0,0-0.1,0c-1.5-1.7-3.1-3.5-4.6-5.2c1.5,1.7,3.1,3.5,4.6,5.2
			c0,0,0,0,0.1,0c1.2-8.7,3.3-17,6.2-25c-79.7,24.1-154.1,64.4-224.9,115.5c-4.6,3.3-14.1,6.9-6.7,15.6c6.2,7.4,10.7,0.1,15.2-3.2
			c34-24.9,69.4-47.5,106.9-66.8c8.8-4.5,16-9.9,19,6.5c2.6,14,14.6,22.5,26.3,29.7c35,21.4,71.6,34.9,109.7,41.4
			C303.6,470,282.4,433,283.1,391.4z"/>
		<path class="st0" d="M509.9,353.2C509.9,353.2,510,353.1,509.9,353.2L509.9,353.2C510,353.1,509.9,353.2,509.9,353.2L509.9,353.2z
			"/>
	</g>
</g>
</svg>
