<svg id="Layer_1" data-name="Layer 1" xmlns="http://www.w3.org/2000/svg" viewBox="0 0 1000 443.6"><title>OlakText</title><path d="M162.5,72.49Q184.22,75.6,201,92.93t27.69,44.49q10.86,27.17,14.48,62.09a308.55,308.55,0,0,1-1.55,73.22,301,301,0,0,1-18.11,70.89q-12.93,32.6-30.27,55.62T155,434.17q-21,11.9-42.68,8.79A111,111,0,0,1,60.56,423Q37.79,406.75,23.31,380.1T3.13,317.75q-5.68-35.72-1-77.62a454,454,0,0,1,15.79-76.06Q29,126.81,40.64,95.25T61.08,40.41q8.79-23.29,8.8-33.64Q73,4.19,86.43,3.15A68.54,68.54,0,0,1,114.12,7a51.39,51.39,0,0,1,24.06,17.6q9.82,12.68,6.21,37.51-.52,2.59-1,5.43a44,44,0,0,1-1.55,6A53.05,53.05,0,0,1,162.5,72.49ZM138.18,391.22q11.9,2.07,23.8-5.43t22.25-22.51q-7.77-7.25-19.92-22.77a355.1,355.1,0,0,1-24.84-36.73,427.74,427.74,0,0,1-23.8-46.31A240.59,240.59,0,0,1,99.37,206a279.68,279.68,0,0,0-6.21,33.12,287.14,287.14,0,0,0-2.59,56.4q1.56,26.91,7.77,47.34t16.29,33.37Q124.73,389.16,138.18,391.22Zm83.3-133.5a287,287,0,0,0,2.59-56.39q-1.56-26.91-7.5-47.35t-16.3-33.37q-10.36-12.93-23.29-15a18.91,18.91,0,0,0-8.79,0q-14,3.11-21,18.37t-8.54,37.77A232.48,232.48,0,0,0,141,210.9a380.18,380.18,0,0,0,11.39,52.26,249.79,249.79,0,0,0,18.88,47.08q11.39,21.48,24.84,33.38Q214.24,307.92,221.48,257.72Z" transform="translate(0)"/><path d="M305.3,411.4a31.23,31.23,0,0,1-8.54,2.85,49.8,49.8,0,0,1-8.53.77,18,18,0,0,1-5.18.52h-.52q-11.89,0-19.66-14.23t-12.16-37.77a437.63,437.63,0,0,1-6.21-53.3q-1.81-29.75-1.55-61.31t1.55-62.09q1.29-30.53,2.85-55.11t3.1-40.36C251.49,80.85,252,74.74,252,73q1.55-17.07,3.1-30.78a137.51,137.51,0,0,1,4.4-23.29q2.83-9.55,7.76-14.48T281,.05q.51,0,11.39,1.55t24.31,10.87a90.81,90.81,0,0,1,15,12.93,118.23,118.23,0,0,1,12.42,16q13.44,23.28,18.11,54.33a193.31,193.31,0,0,1,1,52.52,125.6,125.6,0,0,1-14.49,45.27,140.07,140.07,0,0,1-11.12,17.08A137.32,137.32,0,0,1,326,224.09q-1,28.47-1.55,54.33t0,47.09a140.33,140.33,0,0,0,1.81,18.88q1.28,7,3.88,9.83c1.72,1.9,4.14,2.33,7.24,1.3s7.25-3.28,12.42-6.73a164.25,164.25,0,0,0,32.08-26.13,291.79,291.79,0,0,0,23.8-28.2,259.57,259.57,0,0,0,19.66-31l14.49,5.69q-.52,2.59-6.21,12.16t-15.26,23.54q-9.58,14-22.25,30a384.08,384.08,0,0,1-27.42,31.05,305.41,305.41,0,0,1-30.79,27.42A114,114,0,0,1,305.3,411.4ZM327,199.77a139.94,139.94,0,0,0,13.2-23.8q5.94-13.44,8.53-31.56c0-.69.09-3.53.26-8.54a133,133,0,0,0-.77-17.59,163.89,163.89,0,0,0-3.88-21.73,59.75,59.75,0,0,0-9.58-21q-2.07,25.88-4.14,57.95T327,199.77Z" transform="translate(0)"/><path d="M693.37,247.38Q677.32,296,654.56,334.3a301.94,301.94,0,0,1-22,32.08,168.88,168.88,0,0,1-26.9,27.43,138.26,138.26,0,0,1-32.09,19.4,92.17,92.17,0,0,1-37,7.5q-15.52,0-24.58-7.76a46,46,0,0,1-13.45-20.44q-4.41-12.66-5.18-29.75a356.35,356.35,0,0,1,.26-35.7q-6.72,6.21-14.49,12.42a77.58,77.58,0,0,1-17.07,10.35,82.92,82.92,0,0,1-20.7,5.95,76.86,76.86,0,0,1-24.32-.26q-20.18-3.61-28.45-16.82t-6.73-30q1.55-16.8,11.64-33.63a78.86,78.86,0,0,1,27.17-27.17,99.68,99.68,0,0,1,24.83-11.38,144.85,144.85,0,0,1,23.54-4.92,101.74,101.74,0,0,1,20.18-.51q9.06.76,14.75,1.81a152.4,152.4,0,0,0,.78-19.4A73.46,73.46,0,0,0,503,198.22q24.32-4.14,42.94,1a62,62,0,0,1,15.27,6.46,41.43,41.43,0,0,1,12.93,12.16,57.72,57.72,0,0,1,8.28,18.89q2.83,11.13,1.81,27.16-2.6,32.1-2.58,56.14T585,357.59q3.36,13.46,10.61,14.74t19.66-12.67a245.51,245.51,0,0,0,29.23-39.59,357.77,357.77,0,0,0,18.89-36.47,242.13,242.13,0,0,0,12.93-36.22Zm-256.13,50.7q-.51,14,5.69,17.85t15.53,1q9.32-2.84,19.92-10.87a156.73,156.73,0,0,0,19.4-17.33q1-7.75,1.81-15t1.81-14.48q-5.7,0-16.3,1a86.16,86.16,0,0,0-21.21,4.92,49.87,49.87,0,0,0-18.37,11.64Q437.77,284.63,437.24,298.08Z" transform="translate(0)"/><path d="M917.41,246.34q-10.87,41.91-27.94,74.51a282.45,282.45,0,0,1-16.3,27.42,142.82,142.82,0,0,1-19.92,23.81,98,98,0,0,1-23.81,16.81,61.46,61.46,0,0,1-27.93,6.47q-13.47,1-22.77-4.92a59.42,59.42,0,0,1-15-13.19,87.52,87.52,0,0,1-11.38-20.18,155.3,155.3,0,0,1-8.8,23.28,74,74,0,0,1-12.67,18.89,54.32,54.32,0,0,1-17.08,12.42,47.42,47.42,0,0,1-22,3.88q-15.52.51-24.32-15t-12.93-41.39q-4.15-25.86-4.66-59.5t1-69.86q1.56-36.21,4.4-72.18t5.18-66.49q2.32-30.51,3.1-52.77T661.8,7.29q24.32-4.14,43,1A61.92,61.92,0,0,1,720,14.79,45.54,45.54,0,0,1,733.2,26.7a51.59,51.59,0,0,1,8.54,18.62q2.84,11.13,1.81,27.17-1.54,17.07-3.1,40.1t-3.11,48.64q-1.55,25.61-2.84,52.26T732.69,265q3.62-17.07,8.79-33.89a164.74,164.74,0,0,1,12.16-29.75,78.54,78.54,0,0,1,15.78-21,29.13,29.13,0,0,1,20.18-8q21.21,0,30,14.75t6,36.73q-2.87,22-17.34,48.12t-39.84,48.9c0,1,.17,4.58.52,10.61a76.71,76.71,0,0,0,3.88,19.4,55.25,55.25,0,0,0,10.61,18.89q7.23,8.53,21.21,8.53a50.67,50.67,0,0,0,23.8-5.95,85.69,85.69,0,0,0,21-15.52,149.81,149.81,0,0,0,17.85-21.73,246.75,246.75,0,0,0,15-25.1q15.53-30,26.39-68.3Zm-128.32-29q-5.7,0-9.32,6.2t-6.21,16.82a228.76,228.76,0,0,0-4.39,24.32q-1.83,13.71-3.88,29.23A256.72,256.72,0,0,0,783.4,266a151.13,151.13,0,0,0,11.38-24.83q3.62-10.87,2.59-17.34T789.09,217.37Z" transform="translate(0)"/><path d="M916.37,342.58q26.39-11.9,46-9.31a43.26,43.26,0,0,1,16,5.43q7.75,4.41,12.94,14t7.5,24.84q2.33,15.27-.26,38-26.91,5.68-42.69,5.17t-23.8-5.17A21.26,21.26,0,0,1,921.8,402.6a74.8,74.8,0,0,1-2.59-18.36q-.26-10.1,0-21A63.37,63.37,0,0,0,916.37,342.58Z" transform="translate(0)"/></svg>